{
	"asset":{
		"generator":"Khronos glTF Blender I/O v4.3.47",
		"version":"2.0"
	},
	"scene":0,
	"scenes":[
		{
			"name":"Scene",
			"nodes":[
				0
			]
		}
	],
	"nodes":[
		{
			"mesh":0,
			"name":"Cube",
			"rotation":[
				-0.27769824862480164,
				-0.393027126789093,
				-0.8674845695495605,
				0.1260313093662262
			],
			"scale":[
				0.03358913213014603,
				0.01646585203707218,
				0.01646585203707218
			],
			"translation":[
				0.09067642688751221,
				0.28878599405288696,
				0.5202381014823914
			]
		}
	],
	"materials":[
		{
			"doubleSided":true,
			"name":"Material.006",
			"pbrMetallicRoughness":{
				"baseColorFactor":[
					0.8000229597091675,
					0.06723104417324066,
					0.131302610039711,
					1
				],
				"metallicFactor":0,
				"roughnessFactor":0.5
			}
		},
		{
			"doubleSided":true,
			"name":"Material.002",
			"pbrMetallicRoughness":{
				"baseColorFactor":[
					0.5374140739440918,
					0.3479977548122406,
					0.15383246541023254,
					1
				],
				"metallicFactor":0,
				"roughnessFactor":0.5
			}
		},
		{
			"doubleSided":true,
			"name":"Material.001",
			"pbrMetallicRoughness":{
				"baseColorFactor":[
					0.8022358417510986,
					0.1853034347295761,
					0.5484980344772339,
					1
				],
				"metallicFactor":0,
				"roughnessFactor":0.25590550899505615
			}
		},
		{
			"doubleSided":true,
			"name":"Material.011",
			"pbrMetallicRoughness":{
				"baseColorFactor":[
					0.8002749681472778,
					0.555237889289856,
					0,
					1
				],
				"metallicFactor":0,
				"roughnessFactor":0.5
			}
		},
		{
			"doubleSided":true,
			"name":"Material.004",
			"pbrMetallicRoughness":{
				"baseColorFactor":[
					0.029392702504992485,
					0.4570308327674866,
					0.8000156879425049,
					1
				],
				"metallicFactor":0,
				"roughnessFactor":0.5
			}
		},
		{
			"doubleSided":true,
			"name":"Material.014",
			"pbrMetallicRoughness":{
				"baseColorFactor":[
					0.09256397932767868,
					0.8000074625015259,
					0.15667007863521576,
					1
				],
				"metallicFactor":0,
				"roughnessFactor":0.5
			}
		},
		{
			"doubleSided":true,
			"name":"Material.005",
			"pbrMetallicRoughness":{
				"baseColorFactor":[
					0.06046706438064575,
					0.8001017570495605,
					0.13298217952251434,
					1
				],
				"metallicFactor":0,
				"roughnessFactor":0.5
			}
		},
		{
			"doubleSided":true,
			"name":"Material.008",
			"pbrMetallicRoughness":{
				"baseColorFactor":[
					0.2827807068824768,
					0.1219196617603302,
					0.8005914688110352,
					1
				],
				"metallicFactor":0,
				"roughnessFactor":0.5
			}
		},
		{
			"doubleSided":true,
			"name":"Material.009",
			"pbrMetallicRoughness":{
				"baseColorFactor":[
					0.8002588152885437,
					0.2567730247974396,
					0.026205655187368393,
					1
				],
				"metallicFactor":0,
				"roughnessFactor":0.5
			}
		},
		{
			"doubleSided":true,
			"name":"Material.015",
			"pbrMetallicRoughness":{
				"baseColorFactor":[
					0.8000229597091675,
					0.039347440004348755,
					0.12268932163715363,
					1
				],
				"metallicFactor":0,
				"roughnessFactor":0.5
			}
		},
		{
			"doubleSided":true,
			"name":"Material.003",
			"pbrMetallicRoughness":{
				"baseColorFactor":[
					0.8025352954864502,
					0.5774478316307068,
					0.0031734355725347996,
					1
				],
				"metallicFactor":0,
				"roughnessFactor":0.5
			}
		},
		{
			"doubleSided":true,
			"name":"Material.013",
			"pbrMetallicRoughness":{
				"baseColorFactor":[
					0.06036391481757164,
					0.033988069742918015,
					0.8005450963973999,
					1
				],
				"metallicFactor":0,
				"roughnessFactor":0.5
			}
		},
		{
			"doubleSided":true,
			"name":"Material.012",
			"pbrMetallicRoughness":{
				"baseColorFactor":[
					0.0562162809073925,
					0.40714967250823975,
					0.8000156879425049,
					1
				],
				"metallicFactor":0,
				"roughnessFactor":0.5
			}
		},
		{
			"doubleSided":true,
			"name":"Material.016",
			"pbrMetallicRoughness":{
				"baseColorFactor":[
					0.47645294666290283,
					0.16673052310943604,
					0.8000156879425049,
					1
				],
				"metallicFactor":0,
				"roughnessFactor":0.5
			}
		},
		{
			"doubleSided":true,
			"name":"Material.007",
			"pbrMetallicRoughness":{
				"baseColorFactor":[
					0.007072225213050842,
					0.015309730544686317,
					0.800133466720581,
					1
				],
				"metallicFactor":0,
				"roughnessFactor":0.5
			}
		},
		{
			"doubleSided":true,
			"name":"Material.010",
			"pbrMetallicRoughness":{
				"baseColorFactor":[
					0.8009154796600342,
					0.2373443841934204,
					0.05692656710743904,
					1
				],
				"metallicFactor":0,
				"roughnessFactor":0.5
			}
		}
	],
	"meshes":[
		{
			"name":"Cube.001",
			"primitives":[
				{
					"attributes":{
						"POSITION":0,
						"NORMAL":1,
						"TEXCOORD_0":2
					},
					"indices":3,
					"material":0
				},
				{
					"attributes":{
						"POSITION":4,
						"NORMAL":5,
						"TEXCOORD_0":6
					},
					"indices":7,
					"material":1
				},
				{
					"attributes":{
						"POSITION":8,
						"NORMAL":9,
						"TEXCOORD_0":10
					},
					"indices":11,
					"material":2
				},
				{
					"attributes":{
						"POSITION":12,
						"NORMAL":13,
						"TEXCOORD_0":14
					},
					"indices":15,
					"material":3
				},
				{
					"attributes":{
						"POSITION":16,
						"NORMAL":17,
						"TEXCOORD_0":18
					},
					"indices":19,
					"material":4
				},
				{
					"attributes":{
						"POSITION":20,
						"NORMAL":21,
						"TEXCOORD_0":22
					},
					"indices":23,
					"material":5
				},
				{
					"attributes":{
						"POSITION":24,
						"NORMAL":25,
						"TEXCOORD_0":26
					},
					"indices":27,
					"material":6
				},
				{
					"attributes":{
						"POSITION":28,
						"NORMAL":29,
						"TEXCOORD_0":30
					},
					"indices":31,
					"material":7
				},
				{
					"attributes":{
						"POSITION":32,
						"NORMAL":33,
						"TEXCOORD_0":34
					},
					"indices":35,
					"material":8
				},
				{
					"attributes":{
						"POSITION":36,
						"NORMAL":37,
						"TEXCOORD_0":38
					},
					"indices":39,
					"material":9
				},
				{
					"attributes":{
						"POSITION":40,
						"NORMAL":41,
						"TEXCOORD_0":42
					},
					"indices":43,
					"material":10
				},
				{
					"attributes":{
						"POSITION":44,
						"NORMAL":45,
						"TEXCOORD_0":46
					},
					"indices":47,
					"material":11
				},
				{
					"attributes":{
						"POSITION":48,
						"NORMAL":49,
						"TEXCOORD_0":50
					},
					"indices":51,
					"material":12
				},
				{
					"attributes":{
						"POSITION":52,
						"NORMAL":53,
						"TEXCOORD_0":54
					},
					"indices":55,
					"material":13
				},
				{
					"attributes":{
						"POSITION":56,
						"NORMAL":57,
						"TEXCOORD_0":58
					},
					"indices":15,
					"material":14
				},
				{
					"attributes":{
						"POSITION":59,
						"NORMAL":60,
						"TEXCOORD_0":61
					},
					"indices":23,
					"material":15
				}
			]
		}
	],
	"accessors":[
		{
			"bufferView":0,
			"componentType":5126,
			"count":51,
			"max":[
				1.9723987579345703,
				1,
				1
			],
			"min":[
				-1.9723987579345703,
				-1,
				-1
			],
			"type":"VEC3"
		},
		{
			"bufferView":1,
			"componentType":5126,
			"count":51,
			"type":"VEC3"
		},
		{
			"bufferView":2,
			"componentType":5126,
			"count":51,
			"type":"VEC2"
		},
		{
			"bufferView":3,
			"componentType":5123,
			"count":132,
			"type":"SCALAR"
		},
		{
			"bufferView":4,
			"componentType":5126,
			"count":472,
			"max":[
				18.182634353637695,
				32.16917037963867,
				1.3388862609863281
			],
			"min":[
				-31.774505615234375,
				-48.48740005493164,
				-71.51939392089844
			],
			"type":"VEC3"
		},
		{
			"bufferView":5,
			"componentType":5126,
			"count":472,
			"type":"VEC3"
		},
		{
			"bufferView":6,
			"componentType":5126,
			"count":472,
			"type":"VEC2"
		},
		{
			"bufferView":7,
			"componentType":5123,
			"count":1848,
			"type":"SCALAR"
		},
		{
			"bufferView":8,
			"componentType":5126,
			"count":368,
			"max":[
				19.37417984008789,
				31.760009765625,
				7.926166534423828
			],
			"min":[
				-32.98091125488281,
				-54.21909713745117,
				-69.25989532470703
			],
			"type":"VEC3"
		},
		{
			"bufferView":9,
			"componentType":5126,
			"count":368,
			"type":"VEC3"
		},
		{
			"bufferView":10,
			"componentType":5126,
			"count":368,
			"type":"VEC2"
		},
		{
			"bufferView":11,
			"componentType":5123,
			"count":1320,
			"type":"SCALAR"
		},
		{
			"bufferView":12,
			"componentType":5126,
			"count":52,
			"max":[
				-3.7928216457366943,
				-44.852378845214844,
				-39.0858154296875
			],
			"min":[
				-7.275289535522461,
				-51.482505798339844,
				-45.49198913574219
			],
			"type":"VEC3"
		},
		{
			"bufferView":13,
			"componentType":5126,
			"count":52,
			"type":"VEC3"
		},
		{
			"bufferView":14,
			"componentType":5126,
			"count":52,
			"type":"VEC2"
		},
		{
			"bufferView":15,
			"componentType":5123,
			"count":132,
			"type":"SCALAR"
		},
		{
			"bufferView":16,
			"componentType":5126,
			"count":52,
			"max":[
				-22.80084991455078,
				-16.924381256103516,
				-14.286020278930664
			],
			"min":[
				-26.9293212890625,
				-20.7103271484375,
				-19.418195724487305
			],
			"type":"VEC3"
		},
		{
			"bufferView":17,
			"componentType":5126,
			"count":52,
			"type":"VEC3"
		},
		{
			"bufferView":18,
			"componentType":5126,
			"count":52,
			"type":"VEC2"
		},
		{
			"bufferView":19,
			"componentType":5123,
			"count":132,
			"type":"SCALAR"
		},
		{
			"bufferView":20,
			"componentType":5126,
			"count":48,
			"max":[
				10.078563690185547,
				-14.212212562561035,
				-12.185232162475586
			],
			"min":[
				7.273223876953125,
				-21.136808395385742,
				-19.412700653076172
			],
			"type":"VEC3"
		},
		{
			"bufferView":21,
			"componentType":5126,
			"count":48,
			"type":"VEC3"
		},
		{
			"bufferView":22,
			"componentType":5126,
			"count":48,
			"type":"VEC2"
		},
		{
			"bufferView":23,
			"componentType":5123,
			"count":132,
			"type":"SCALAR"
		},
		{
			"bufferView":24,
			"componentType":5126,
			"count":52,
			"max":[
				-17.27564239501953,
				-39.45236587524414,
				-33.85869598388672
			],
			"min":[
				-20.844139099121094,
				-45.33335494995117,
				-40.63603973388672
			],
			"type":"VEC3"
		},
		{
			"bufferView":25,
			"componentType":5126,
			"count":52,
			"type":"VEC3"
		},
		{
			"bufferView":26,
			"componentType":5126,
			"count":52,
			"type":"VEC2"
		},
		{
			"bufferView":27,
			"componentType":5123,
			"count":132,
			"type":"SCALAR"
		},
		{
			"bufferView":28,
			"componentType":5126,
			"count":152,
			"max":[
				-14.91136360168457,
				3.263047218322754,
				3.1778454780578613
			],
			"min":[
				-18.994525909423828,
				-39.74203872680664,
				-42.80067443847656
			],
			"type":"VEC3"
		},
		{
			"bufferView":29,
			"componentType":5126,
			"count":152,
			"type":"VEC3"
		},
		{
			"bufferView":30,
			"componentType":5126,
			"count":152,
			"type":"VEC2"
		},
		{
			"bufferView":31,
			"componentType":5123,
			"count":396,
			"type":"SCALAR"
		},
		{
			"bufferView":32,
			"componentType":5126,
			"count":52,
			"max":[
				8.153280258178711,
				-36.09324264526367,
				-31.273754119873047
			],
			"min":[
				4.079852104187012,
				-41.50691604614258,
				-36.12662124633789
			],
			"type":"VEC3"
		},
		{
			"bufferView":33,
			"componentType":5126,
			"count":52,
			"type":"VEC3"
		},
		{
			"bufferView":34,
			"componentType":5126,
			"count":52,
			"type":"VEC2"
		},
		{
			"bufferView":35,
			"componentType":5123,
			"count":132,
			"type":"SCALAR"
		},
		{
			"bufferView":36,
			"componentType":5126,
			"count":48,
			"max":[
				-25.243968963623047,
				-29.354995727539062,
				-30.866519927978516
			],
			"min":[
				-29.142440795898438,
				-35.69020080566406,
				-35.854496002197266
			],
			"type":"VEC3"
		},
		{
			"bufferView":37,
			"componentType":5126,
			"count":48,
			"type":"VEC3"
		},
		{
			"bufferView":38,
			"componentType":5126,
			"count":48,
			"type":"VEC2"
		},
		{
			"bufferView":39,
			"componentType":5123,
			"count":132,
			"type":"SCALAR"
		},
		{
			"bufferView":40,
			"componentType":5126,
			"count":52,
			"max":[
				-23.452119827270508,
				-0.1309657096862793,
				-4.357987880706787
			],
			"min":[
				-27.529760360717773,
				-6.196289539337158,
				-8.645605087280273
			],
			"type":"VEC3"
		},
		{
			"bufferView":41,
			"componentType":5126,
			"count":52,
			"type":"VEC3"
		},
		{
			"bufferView":42,
			"componentType":5126,
			"count":52,
			"type":"VEC2"
		},
		{
			"bufferView":43,
			"componentType":5123,
			"count":132,
			"type":"SCALAR"
		},
		{
			"bufferView":44,
			"componentType":5126,
			"count":52,
			"max":[
				-11.962580680847168,
				-49.05809783935547,
				-47.42441940307617
			],
			"min":[
				-16.113462448120117,
				-53.830810546875,
				-51.201236724853516
			],
			"type":"VEC3"
		},
		{
			"bufferView":45,
			"componentType":5126,
			"count":52,
			"type":"VEC3"
		},
		{
			"bufferView":46,
			"componentType":5126,
			"count":52,
			"type":"VEC2"
		},
		{
			"bufferView":47,
			"componentType":5123,
			"count":132,
			"type":"SCALAR"
		},
		{
			"bufferView":48,
			"componentType":5126,
			"count":52,
			"max":[
				5.933840751647949,
				-46.403587341308594,
				-44.872154235839844
			],
			"min":[
				2.9666261672973633,
				-51.200157165527344,
				-53.150848388671875
			],
			"type":"VEC3"
		},
		{
			"bufferView":49,
			"componentType":5126,
			"count":52,
			"type":"VEC3"
		},
		{
			"bufferView":50,
			"componentType":5126,
			"count":52,
			"type":"VEC2"
		},
		{
			"bufferView":51,
			"componentType":5123,
			"count":132,
			"type":"SCALAR"
		},
		{
			"bufferView":52,
			"componentType":5126,
			"count":52,
			"max":[
				16.463123321533203,
				-24.847848892211914,
				-25.92310905456543
			],
			"min":[
				13.910600662231445,
				-29.632505416870117,
				-34.32981872558594
			],
			"type":"VEC3"
		},
		{
			"bufferView":53,
			"componentType":5126,
			"count":52,
			"type":"VEC3"
		},
		{
			"bufferView":54,
			"componentType":5126,
			"count":52,
			"type":"VEC2"
		},
		{
			"bufferView":55,
			"componentType":5123,
			"count":132,
			"type":"SCALAR"
		},
		{
			"bufferView":56,
			"componentType":5126,
			"count":52,
			"max":[
				11.580416679382324,
				7.082857608795166,
				-1.827835202217102
			],
			"min":[
				9.949204444885254,
				-1.2711739540100098,
				-5.398033142089844
			],
			"type":"VEC3"
		},
		{
			"bufferView":57,
			"componentType":5126,
			"count":52,
			"type":"VEC3"
		},
		{
			"bufferView":58,
			"componentType":5126,
			"count":52,
			"type":"VEC2"
		},
		{
			"bufferView":59,
			"componentType":5126,
			"count":48,
			"max":[
				-7.26053524017334,
				18.407743453979492,
				9.61684799194336
			],
			"min":[
				-8.89174747467041,
				10.053712844848633,
				6.046649932861328
			],
			"type":"VEC3"
		},
		{
			"bufferView":60,
			"componentType":5126,
			"count":48,
			"type":"VEC3"
		},
		{
			"bufferView":61,
			"componentType":5126,
			"count":48,
			"type":"VEC2"
		}
	],
	"bufferViews":[
		{
			"buffer":0,
			"byteLength":612,
			"byteOffset":0,
			"target":34962
		},
		{
			"buffer":0,
			"byteLength":612,
			"byteOffset":612,
			"target":34962
		},
		{
			"buffer":0,
			"byteLength":408,
			"byteOffset":1224,
			"target":34962
		},
		{
			"buffer":0,
			"byteLength":264,
			"byteOffset":1632,
			"target":34963
		},
		{
			"buffer":0,
			"byteLength":5664,
			"byteOffset":1896,
			"target":34962
		},
		{
			"buffer":0,
			"byteLength":5664,
			"byteOffset":7560,
			"target":34962
		},
		{
			"buffer":0,
			"byteLength":3776,
			"byteOffset":13224,
			"target":34962
		},
		{
			"buffer":0,
			"byteLength":3696,
			"byteOffset":17000,
			"target":34963
		},
		{
			"buffer":0,
			"byteLength":4416,
			"byteOffset":20696,
			"target":34962
		},
		{
			"buffer":0,
			"byteLength":4416,
			"byteOffset":25112,
			"target":34962
		},
		{
			"buffer":0,
			"byteLength":2944,
			"byteOffset":29528,
			"target":34962
		},
		{
			"buffer":0,
			"byteLength":2640,
			"byteOffset":32472,
			"target":34963
		},
		{
			"buffer":0,
			"byteLength":624,
			"byteOffset":35112,
			"target":34962
		},
		{
			"buffer":0,
			"byteLength":624,
			"byteOffset":35736,
			"target":34962
		},
		{
			"buffer":0,
			"byteLength":416,
			"byteOffset":36360,
			"target":34962
		},
		{
			"buffer":0,
			"byteLength":264,
			"byteOffset":36776,
			"target":34963
		},
		{
			"buffer":0,
			"byteLength":624,
			"byteOffset":37040,
			"target":34962
		},
		{
			"buffer":0,
			"byteLength":624,
			"byteOffset":37664,
			"target":34962
		},
		{
			"buffer":0,
			"byteLength":416,
			"byteOffset":38288,
			"target":34962
		},
		{
			"buffer":0,
			"byteLength":264,
			"byteOffset":38704,
			"target":34963
		},
		{
			"buffer":0,
			"byteLength":576,
			"byteOffset":38968,
			"target":34962
		},
		{
			"buffer":0,
			"byteLength":576,
			"byteOffset":39544,
			"target":34962
		},
		{
			"buffer":0,
			"byteLength":384,
			"byteOffset":40120,
			"target":34962
		},
		{
			"buffer":0,
			"byteLength":264,
			"byteOffset":40504,
			"target":34963
		},
		{
			"buffer":0,
			"byteLength":624,
			"byteOffset":40768,
			"target":34962
		},
		{
			"buffer":0,
			"byteLength":624,
			"byteOffset":41392,
			"target":34962
		},
		{
			"buffer":0,
			"byteLength":416,
			"byteOffset":42016,
			"target":34962
		},
		{
			"buffer":0,
			"byteLength":264,
			"byteOffset":42432,
			"target":34963
		},
		{
			"buffer":0,
			"byteLength":1824,
			"byteOffset":42696,
			"target":34962
		},
		{
			"buffer":0,
			"byteLength":1824,
			"byteOffset":44520,
			"target":34962
		},
		{
			"buffer":0,
			"byteLength":1216,
			"byteOffset":46344,
			"target":34962
		},
		{
			"buffer":0,
			"byteLength":792,
			"byteOffset":47560,
			"target":34963
		},
		{
			"buffer":0,
			"byteLength":624,
			"byteOffset":48352,
			"target":34962
		},
		{
			"buffer":0,
			"byteLength":624,
			"byteOffset":48976,
			"target":34962
		},
		{
			"buffer":0,
			"byteLength":416,
			"byteOffset":49600,
			"target":34962
		},
		{
			"buffer":0,
			"byteLength":264,
			"byteOffset":50016,
			"target":34963
		},
		{
			"buffer":0,
			"byteLength":576,
			"byteOffset":50280,
			"target":34962
		},
		{
			"buffer":0,
			"byteLength":576,
			"byteOffset":50856,
			"target":34962
		},
		{
			"buffer":0,
			"byteLength":384,
			"byteOffset":51432,
			"target":34962
		},
		{
			"buffer":0,
			"byteLength":264,
			"byteOffset":51816,
			"target":34963
		},
		{
			"buffer":0,
			"byteLength":624,
			"byteOffset":52080,
			"target":34962
		},
		{
			"buffer":0,
			"byteLength":624,
			"byteOffset":52704,
			"target":34962
		},
		{
			"buffer":0,
			"byteLength":416,
			"byteOffset":53328,
			"target":34962
		},
		{
			"buffer":0,
			"byteLength":264,
			"byteOffset":53744,
			"target":34963
		},
		{
			"buffer":0,
			"byteLength":624,
			"byteOffset":54008,
			"target":34962
		},
		{
			"buffer":0,
			"byteLength":624,
			"byteOffset":54632,
			"target":34962
		},
		{
			"buffer":0,
			"byteLength":416,
			"byteOffset":55256,
			"target":34962
		},
		{
			"buffer":0,
			"byteLength":264,
			"byteOffset":55672,
			"target":34963
		},
		{
			"buffer":0,
			"byteLength":624,
			"byteOffset":55936,
			"target":34962
		},
		{
			"buffer":0,
			"byteLength":624,
			"byteOffset":56560,
			"target":34962
		},
		{
			"buffer":0,
			"byteLength":416,
			"byteOffset":57184,
			"target":34962
		},
		{
			"buffer":0,
			"byteLength":264,
			"byteOffset":57600,
			"target":34963
		},
		{
			"buffer":0,
			"byteLength":624,
			"byteOffset":57864,
			"target":34962
		},
		{
			"buffer":0,
			"byteLength":624,
			"byteOffset":58488,
			"target":34962
		},
		{
			"buffer":0,
			"byteLength":416,
			"byteOffset":59112,
			"target":34962
		},
		{
			"buffer":0,
			"byteLength":264,
			"byteOffset":59528,
			"target":34963
		},
		{
			"buffer":0,
			"byteLength":624,
			"byteOffset":59792,
			"target":34962
		},
		{
			"buffer":0,
			"byteLength":624,
			"byteOffset":60416,
			"target":34962
		},
		{
			"buffer":0,
			"byteLength":416,
			"byteOffset":61040,
			"target":34962
		},
		{
			"buffer":0,
			"byteLength":576,
			"byteOffset":61456,
			"target":34962
		},
		{
			"buffer":0,
			"byteLength":576,
			"byteOffset":62032,
			"target":34962
		},
		{
			"buffer":0,
			"byteLength":384,
			"byteOffset":62608,
			"target":34962
		}
	],
	"buffers":[
		{
			"byteLength":62992,
			"uri":"scene.bin"
		}
	]
}
